<?xml version="1.0" standalone="no"?>
<!DOCTYPE svg PUBLIC "-//W3C//DTD SVG 20010904//EN"
 "http://www.w3.org/TR/2001/REC-SVG-20010904/DTD/svg10.dtd">
<svg version="1.0" xmlns="http://www.w3.org/2000/svg"
 width="500.000000pt" height="500.000000pt" viewBox="0 0 500.000000 500.000000"
 preserveAspectRatio="xMidYMid meet">
<metadata>
Created by potrace 1.14, written by Peter Selinger 2001-2017
</metadata>
<g transform="translate(0.000000,500.000000) scale(0.100000,-0.100000)"
fill="#000000" stroke="none">
<path d="M0 2500 l0 -2500 2500 0 2500 0 0 2500 0 2500 -2500 0 -2500 0 0
-2500z m3280 519 c0 -937 -4 -1509 -9 -1507 -12 4 -2201 2054 -2204 2063 -2 8
2172 953 2196 954 16 1 17 -77 17 -1510z m554 1176 l236 -324 0 -1195 0 -1194
-226 -313 c-124 -173 -232 -321 -240 -329 -12 -12 -14 254 -14 1833 0 1016 2
1847 4 1847 3 0 111 -146 240 -325z m-1604 -2108 c738 -693 1340 -1261 1338
-1263 -3 -2 -184 19 -404 47 l-399 50 -40 38 c-105 100 -1653 1549 -1673 1566
-20 18 -32 69 -101 423 -42 221 -74 401 -70 400 4 -2 611 -569 1349 -1261z"/>
</g>
</svg>
